<?xml version="1.0" encoding="UTF-8" standalone="no"?>
<svg
   xmlns:dc="http://purl.org/dc/elements/1.1/"
   xmlns:cc="http://creativecommons.org/ns#"
   xmlns:rdf="http://www.w3.org/1999/02/22-rdf-syntax-ns#"
   xmlns:svg="http://www.w3.org/2000/svg"
   xmlns="http://www.w3.org/2000/svg"
   xmlns:sodipodi="http://sodipodi.sourceforge.net/DTD/sodipodi-0.dtd"
   xmlns:inkscape="http://www.inkscape.org/namespaces/inkscape"
   viewBox="0 0 318.45243 57.588534"
   height="57.588535"
   width="318.45242"
   xml:space="preserve"
   id="svg2"
   version="1.1"
   inkscape:version="0.91 r13725"
   sodipodi:docname="Innovative_Recovery_Long.svg"><sodipodi:namedview
     pagecolor="#ffffff"
     bordercolor="#666666"
     borderopacity="1"
     objecttolerance="10"
     gridtolerance="10"
     guidetolerance="10"
     inkscape:pageopacity="0"
     inkscape:pageshadow="2"
     inkscape:window-width="1920"
     inkscape:window-height="1137"
     id="namedview3363"
     showgrid="false"
     fit-margin-top="0"
     fit-margin-left="0"
     fit-margin-right="0"
     fit-margin-bottom="0"
     inkscape:zoom="2.9066528"
     inkscape:cx="174.45003"
     inkscape:cy="63.765614"
     inkscape:window-x="-8"
     inkscape:window-y="-8"
     inkscape:window-maximized="1"
     inkscape:current-layer="svg2" /><metadata
     id="metadata8"><rdf:RDF><cc:Work
         rdf:about=""><dc:format>image/svg+xml</dc:format><dc:type
           rdf:resource="http://purl.org/dc/dcmitype/StillImage" /><dc:title></dc:title></cc:Work></rdf:RDF></metadata><defs
     id="defs6" /><g
     id="g3436"
     transform="translate(-6.258635,-37.112394)"><g
       transform="translate(73.385738,-41.474674)"
       id="g3414"><path
         id="path14"
         style="fill:#8cb19a;fill-opacity:1;fill-rule:nonzero;stroke:none"
         d="m 6.7177065,109.44613 -6.7177065,0 0,-25.942132 6.7177065,0 0,25.942132"
         inkscape:connector-curvature="0" /><path
         id="path16"
         style="fill:#8cb19a;fill-opacity:1;fill-rule:nonzero;stroke:none"
         d="m 14.597333,83.503998 6.717733,0 11.785467,15.865599 0.06347,0 0,-15.865599 6.7172,0 0,25.942132 -6.7172,0 -11.7692,-15.899466 -0.07973,0 0,15.899466 -6.717733,0 0,-25.942132"
         inkscape:connector-curvature="0" /><path
         id="path18"
         style="fill:#8cb19a;fill-opacity:1;fill-rule:nonzero;stroke:none"
         d="m 48.350532,83.503998 6.7172,0 11.784933,15.865599 0.064,0 0,-15.865599 6.717733,0 0,25.942132 -6.717733,0 -11.769333,-15.899466 -0.0796,0 0,15.899466 -6.7172,0 0,-25.942132"
         inkscape:connector-curvature="0" /><path
         id="path20"
         style="fill:#8cb19a;fill-opacity:1;fill-rule:nonzero;stroke:none"
         d="m 94.836931,89.465998 c -1.978533,0.02227 -3.6468,0.699466 -5.0052,2.0296 -1.3812,1.297466 -2.081733,2.859333 -2.1036,4.685466 0.02187,2.2312 0.7224,4.046266 2.1036,5.443736 1.3584,1.41826 3.026667,2.138 5.0052,2.15986 2.0328,-0.0219 3.712533,-0.7416 5.038133,-2.15986 1.359336,-1.39747 2.049466,-3.212536 2.071866,-5.443736 -0.0224,-1.826133 -0.71253,-3.388 -2.071866,-4.685466 -1.3256,-1.330134 -3.005333,-2.007334 -5.038133,-2.0296 z m 0,-6.516667 c 3.7532,0.04427 6.974529,1.2676 9.664669,3.671867 2.7552,2.404666 4.16346,5.579066 4.22906,9.5228 -0.0432,4.222002 -1.33893,7.616262 -3.88853,10.186532 -2.55987,2.60413 -5.894266,3.92867 -10.005199,3.97293 -4.1104,-0.0443 -7.429067,-1.3688 -9.956666,-3.97293 -2.5824,-2.57027 -3.893334,-5.96453 -3.9376,-10.186532 0.0652,-3.943734 1.486,-7.118134 4.263066,-9.5228 2.690133,-2.404267 5.9,-3.6276 9.6312,-3.671867"
         inkscape:connector-curvature="0" /><path
         id="path22"
         style="fill:#8cb19a;fill-opacity:1;fill-rule:nonzero;stroke:none"
         d="m 126.69173,99.267997 6.09733,-15.763999 7.0896,0 -10.71466,25.942132 -5.07387,0 -10.55373,-25.942132 7.0896,0 6.06573,15.763999"
         inkscape:connector-curvature="0" /><path
         id="path24"
         style="fill:#8cb19a;fill-opacity:1;fill-rule:nonzero;stroke:none"
         d="m 153.65333,91.516398 -0.0653,0 -2.69867,8.287066 5.43067,0 z m -4.56933,13.428662 -1.72267,4.50107 -6.92667,0 9.65734,-25.942132 7.12133,0 9.464,25.942132 -6.95867,0 -1.64266,-4.50107 -8.992,0"
         inkscape:connector-curvature="0" /><path
         id="path26"
         style="fill:#8cb19a;fill-opacity:1;fill-rule:nonzero;stroke:none"
         d="m 181.00533,109.44613 -6.71733,0 0,-20.231199 -5.4,0 0,-5.710933 17.52133,0 0,5.710933 -5.404,0 0,20.231199"
         inkscape:connector-curvature="0" /><path
         id="path28"
         style="fill:#8cb19a;fill-opacity:1;fill-rule:nonzero;stroke:none"
         d="m 199.33333,109.44613 -6.71733,0 0,-25.942132 6.71733,0 0,25.942132"
         inkscape:connector-curvature="0" /><path
         id="path30"
         style="fill:#8cb19a;fill-opacity:1;fill-rule:nonzero;stroke:none"
         d="m 217.84799,99.267997 6.09734,-15.763999 7.08933,0 -10.71467,25.942132 -5.07333,0 -10.55333,-25.942132 7.08933,0 6.06533,15.763999"
         inkscape:connector-curvature="0" /><path
         id="path32"
         style="fill:#8cb19a;fill-opacity:1;fill-rule:nonzero;stroke:none"
         d="m 243.55066,89.214931 0,4.338533 7.36667,0 0,5.710933 -7.36667,0 0,4.470803 7.77467,0 0,5.71093 -14.492,0 0,-25.942132 14.492,0 0,5.710933 -7.77467,0"
         inkscape:connector-curvature="0" /><path
         id="path34"
         style="fill:#163234;fill-opacity:1;fill-rule:nonzero;stroke:none"
         d="m 62.704132,124.63104 c 0.386533,0 0.714133,-0.0432 0.981866,-0.12916 0.267067,-0.0844 0.483334,-0.22918 0.648934,-0.43074 0.1656,-0.20156 0.2844,-0.47032 0.3588,-0.80208 0.074,-0.33333 0.1104,-0.7448 0.1104,-1.23437 l 0,-1.15365 c 0,-0.375 -0.03387,-0.69896 -0.102,-0.9724 -0.06827,-0.27395 -0.183334,-0.49895 -0.345867,-0.675 -0.162,-0.17708 -0.3776,-0.30834 -0.6448,-0.39323 -0.267733,-0.0859 -0.6036,-0.1276 -1.007333,-0.1276 l -0.333334,0 0,5.91823 z m -2.502534,-7.53224 2.399467,0 c 0.273467,0 0.573467,0.0115 0.901067,0.0333 0.3276,0.0233 0.6552,0.0781 0.9828,0.16667 0.326533,0.0885 0.6432,0.22186 0.947333,0.39733 0.304133,0.17707 0.575067,0.41827 0.811467,0.72653 0.236533,0.30734 0.425066,0.69275 0.567733,1.1563 0.142667,0.46458 0.2136,1.02604 0.2136,1.68749 l 0,0.36719 c 0,1.10938 -0.159467,2.01302 -0.478667,2.71094 -0.318266,0.69791 -0.788533,1.20052 -1.408933,1.50782 l 2.340133,5.83176 -2.340133,0 -1.938533,-5.45676 -0.828134,0 0,5.45676 -2.1692,0 0,-14.58536"
         inkscape:connector-curvature="0" /><path
         id="path36"
         style="fill:#163234;fill-opacity:1;fill-rule:nonzero;stroke:none"
         d="m 77.896398,117.0988 5.405733,0 0,1.74161 -3.193733,0 0,4.36355 2.468133,0 0,1.74218 -2.468133,0 0,4.99635 3.279067,0 0,1.74167 -5.491067,0 0,-14.58536"
         inkscape:connector-curvature="0" /><path
         id="path38"
         style="fill:#163234;fill-opacity:1;fill-rule:nonzero;stroke:none"
         d="m 96.871864,131.81333 c -0.227066,0 -0.474,-0.0198 -0.738,-0.0563 -0.265066,-0.0365 -0.530266,-0.11562 -0.794266,-0.23438 -0.265067,-0.11927 -0.518267,-0.28906 -0.7604,-0.50885 -0.241734,-0.21875 -0.4552,-0.50781 -0.640134,-0.86563 -0.185466,-0.35989 -0.333333,-0.8026 -0.4448,-1.32812 -0.1104,-0.52761 -0.1656,-1.15521 -0.1656,-1.88281 l 0,-5.16667 c 0,-0.73593 0.05627,-1.36354 0.170267,-1.88437 0.114133,-0.52084 0.265067,-0.95833 0.452667,-1.31511 0.188,-0.35568 0.404133,-0.63808 0.648933,-0.84901 0.2448,-0.21093 0.497867,-0.3724 0.7604,-0.48333 0.262,-0.1104 0.521867,-0.18334 0.7812,-0.2172 0.259467,-0.0337 0.4996,-0.0509 0.721467,-0.0509 0.580666,0 1.066133,0.0807 1.456133,0.24214 0.390133,0.16306 0.7032,0.386 0.9396,0.66666 0.236533,0.2812 0.404267,0.61095 0.503733,0.98699 0.1,0.37552 0.149467,0.77344 0.149467,1.19532 0,0.31249 -0.0156,0.60208 -0.04693,0.86719 -0.0312,0.26458 -0.07813,0.55625 -0.140534,0.875 l -1.793866,0 0,-0.74323 c 0,-0.80209 -0.08853,-1.40365 -0.265067,-1.80209 -0.176,-0.39843 -0.435467,-0.59791 -0.776533,-0.59791 -0.2052,0 -0.384934,0.0406 -0.538534,0.12031 -0.153733,0.0792 -0.281733,0.21458 -0.383866,0.40625 -0.102667,0.18959 -0.1812,0.44219 -0.235467,0.7552 -0.0536,0.31199 -0.08013,0.70261 -0.08013,1.17032 l 0,6.65989 c 0,0.45574 0.02027,0.8349 0.06347,1.13699 0.0428,0.30052 0.112534,0.54323 0.208934,0.725 0.0968,0.18228 0.223333,0.31301 0.380133,0.38957 0.157333,0.0766 0.345867,0.11459 0.567733,0.11459 0.142667,0 0.279734,-0.0328 0.4104,-0.0979 0.1308,-0.0661 0.245867,-0.16771 0.345867,-0.30729 0.09947,-0.14062 0.179733,-0.31615 0.2396,-0.52968 0.0588,-0.21355 0.08907,-0.46615 0.08907,-0.75626 l 0,-1.42604 2.023866,0 0,1.34896 c 0,1.17292 -0.2676,2.03907 -0.802533,2.59636 -0.535467,0.55885 -1.304133,0.83958 -2.306267,0.84635"
         inkscape:connector-curvature="0" /><path
         id="path40"
         style="fill:#163234;fill-opacity:1;fill-rule:nonzero;stroke:none"
         d="m 113.69693,130.14822 c 0.21613,0 0.40573,-0.038 0.5676,-0.11197 0.162,-0.0734 0.29533,-0.20209 0.40107,-0.38437 0.1052,-0.1823 0.18493,-0.42188 0.2396,-0.72136 0.0541,-0.29948 0.0808,-0.67604 0.0808,-1.13178 l 0,-6.63489 c 0,-0.46771 -0.0267,-0.85729 -0.0808,-1.17083 -0.0547,-0.3125 -0.1344,-0.5651 -0.2396,-0.75521 -0.10574,-0.19167 -0.23907,-0.32552 -0.40107,-0.40625 -0.16187,-0.0797 -0.35147,-0.11875 -0.5676,-0.11875 -0.22187,0 -0.41627,0.0391 -0.5808,0.11875 -0.16507,0.0807 -0.30213,0.21458 -0.40987,0.40625 -0.1084,0.19011 -0.1896,0.44271 -0.24373,0.75521 -0.0541,0.31354 -0.0813,0.70312 -0.0813,1.17083 l 0,6.63489 c 0,0.45574 0.0272,0.8323 0.0813,1.13178 0.0541,0.29948 0.13533,0.53906 0.24373,0.72136 0.10774,0.18228 0.2448,0.31093 0.40987,0.38437 0.16453,0.074 0.35893,0.11197 0.5808,0.11197 z m 0,1.66511 c -0.23387,0 -0.48707,-0.0198 -0.76053,-0.0563 -0.27334,-0.0365 -0.54374,-0.11562 -0.81134,-0.23438 -0.2672,-0.11927 -0.52506,-0.28906 -0.7724,-0.50885 -0.24853,-0.21875 -0.4672,-0.50781 -0.65786,-0.86563 -0.19067,-0.35989 -0.34267,-0.8026 -0.4568,-1.32812 -0.114,-0.52761 -0.1708,-1.15521 -0.1708,-1.88281 l 0,-5.16667 c 0,-0.73593 0.0579,-1.36354 0.17493,-1.88437 0.11667,-0.52084 0.27187,-0.95833 0.4652,-1.31511 0.19427,-0.35568 0.41453,-0.63808 0.662,-0.84901 0.24733,-0.21093 0.50667,-0.3724 0.7776,-0.48333 0.27027,-0.1104 0.53907,-0.18334 0.80613,-0.2172 0.26774,-0.0337 0.51574,-0.0509 0.74387,-0.0509 0.21613,0 0.45613,0.0161 0.72133,0.0468 0.26507,0.0313 0.52907,0.0989 0.79427,0.20467 0.26507,0.1052 0.5224,0.26147 0.77293,0.4704 0.25054,0.2068 0.4724,0.4896 0.66614,0.84476 0.1932,0.35573 0.34893,0.79687 0.46506,1.32396 0.11667,0.52604 0.17507,1.16301 0.17507,1.90937 l 0,5.16667 c 0,0.7224 -0.06,1.34479 -0.17867,1.86563 -0.11986,0.52082 -0.27706,0.96249 -0.4704,1.3229 -0.1932,0.36199 -0.4172,0.65209 -0.67026,0.87136 -0.2536,0.2198 -0.51254,0.39011 -0.77654,0.5125 -0.2652,0.1224 -0.52866,0.20313 -0.79066,0.24375 -0.262,0.0391 -0.49787,0.0599 -0.70827,0.0599"
         inkscape:connector-curvature="0" /><path
         id="path42"
         style="fill:#163234;fill-opacity:1;fill-rule:nonzero;stroke:none"
         d="m 127.0448,117.0988 2.262,0 1.60573,11.55464 0.0948,0 1.61347,-11.55464 2.2552,0 -2.65627,14.58536 -2.5276,0 -2.64733,-14.58536"
         inkscape:connector-curvature="0" /><path
         id="path44"
         style="fill:#163234;fill-opacity:1;fill-rule:nonzero;stroke:none"
         d="m 145.02933,117.0988 5.40667,0 0,1.74161 -3.19467,0 0,4.36355 2.468,0 0,1.74218 -2.468,0 0,4.99635 3.27867,0 0,1.74167 -5.49067,0 0,-14.58536"
         inkscape:connector-curvature="0" /><path
         id="path46"
         style="fill:#163234;fill-opacity:1;fill-rule:nonzero;stroke:none"
         d="m 163.36533,124.63104 c 0.38667,0 0.71333,-0.0432 0.98133,-0.12916 0.268,-0.0844 0.484,-0.22918 0.64934,-0.43074 0.16533,-0.20156 0.28533,-0.47032 0.35866,-0.80208 0.0747,-0.33333 0.11067,-0.7448 0.11067,-1.23437 l 0,-1.15365 c 0,-0.375 -0.0333,-0.69896 -0.10267,-0.9724 -0.068,-0.27395 -0.184,-0.49895 -0.34533,-0.675 -0.16267,-0.17708 -0.37733,-0.30834 -0.64533,-0.39323 -0.26667,-0.0859 -0.60267,-0.1276 -1.00667,-0.1276 l -0.33333,0 0,5.91823 z m -2.50267,-7.53224 2.4,0 c 0.27334,0 0.57334,0.0115 0.90134,0.0333 0.32666,0.0233 0.65466,0.0781 0.98133,0.16667 0.32667,0.0885 0.64267,0.22186 0.948,0.39733 0.30533,0.17707 0.576,0.41827 0.81067,0.72653 0.23733,0.30734 0.42666,0.69275 0.568,1.1563 0.144,0.46458 0.21333,1.02604 0.21333,1.68749 l 0,0.36719 c 0,1.10938 -0.15867,2.01302 -0.47733,2.71094 -0.31867,0.69791 -0.78934,1.20052 -1.40934,1.50782 l 2.34,5.83176 -2.34,0 -1.93866,-5.45676 -0.828,0 0,5.45676 -2.16934,0 0,-14.58536"
         inkscape:connector-curvature="0" /><path
         id="path48"
         style="fill:#163234;fill-opacity:1;fill-rule:nonzero;stroke:none"
         d="m 180.29066,126.8253 -2.93733,-9.7265 2.228,0 1.78533,6.9765 0.10267,0 1.768,-6.9765 2.22,0 -2.95467,9.7265 0,4.85886 -2.212,0 0,-4.85886"
         inkscape:connector-curvature="0" /><path
         id="path50"
         style="fill:none;stroke:#163234;stroke-width:1.33333325;stroke-linecap:butt;stroke-linejoin:miter;stroke-miterlimit:10;stroke-dasharray:none;stroke-opacity:1"
         d="m 50.287999,125.12792 -33.999999,0"
         inkscape:connector-curvature="0" /><path
         id="path52"
         style="fill:none;stroke:#163234;stroke-width:1.33333325;stroke-linecap:butt;stroke-linejoin:miter;stroke-miterlimit:10;stroke-dasharray:none;stroke-opacity:1"
         d="m 227.62133,125.12792 -34,0"
         inkscape:connector-curvature="0" /></g><g
       transform="translate(-98.394965,37.112661)"
       id="g3410"><path
         id="path54"
         style="fill:#8cb19a;fill-opacity:1;fill-rule:nonzero;stroke:none"
         d="m 117.486,57.038799 -12.8324,0 0,-57.03906570466 12.8324,0 0,57.03906570466"
         inkscape:connector-curvature="0" /><path
         id="path56"
         style="fill:#163234;fill-opacity:1;fill-rule:nonzero;stroke:none"
         d="m 137.19866,33.986266 c 3.98934,-0.870267 7.01467,-2.771867 9.08,-5.705733 2.068,-3.0068 3.10134,-6.525067 3.10134,-10.552133 -0.0507,-6.164534 -1.916,-10.6640002 -5.59867,-13.4978668 -3.65733,-2.8083999 -8.384,-4.21253324 -14.17827,-4.21253324 l -7.25826,0 0.0224,11.40626604 0.0479,0 1.4584,0 c 0.23534,0 0.45054,0 0.6796,0 0.4276,0 0.86094,0 1.2672,0 0.59907,0 1.21,0.05 1.83387,0.148934 1.17293,0.200533 2.2704,0.561466 3.2928,1.084933 1.0224,0.451067 1.83427,1.161467 2.43307,2.133867 0.624,0.9744 0.93466,2.259333 0.93466,3.855733 0,1.5224 -0.31066,2.745866 -0.93466,3.668266 -0.5988,0.973334 -1.41067,1.709867 -2.43307,2.2088 -1.0224,0.524534 -2.11987,0.861467 -3.2928,1.010934 -1.2224,0.2 -2.4828,0.299466 -3.78067,0.299466 l -1.4584,0 0,-0.04693 -0.0192,0 0.0192,9.654266 0.18134,0 13.8276,22.145733 18.29333,0 -17.51867,-23.601999"
         inkscape:connector-curvature="0" /></g></g></svg>